<svg width="36" height="36" viewBox="0 0 36 36" fill="none" xmlns="http://www.w3.org/2000/svg">
<path d="M11.5351 20.3971C11.4777 20.3971 11.4195 20.3795 11.3696 20.3428C8.48199 18.2352 6.75807 14.8376 6.75807 11.2548C6.75807 5.05605 11.8013 0.0128174 18.0001 0.0128174C24.1985 0.0128174 29.242 5.05605 29.242 11.2548C29.242 14.8374 27.5179 18.2344 24.63 20.3417C24.5047 20.434 24.3285 20.4059 24.2369 20.2807C24.1931 20.2205 24.175 20.1454 24.1865 20.0718C24.198 19.9982 24.2382 19.9322 24.2983 19.8883C27.0419 17.8858 28.6799 14.6584 28.6799 11.2548C28.68 5.36585 23.889 0.574896 18.0001 0.574896C12.1112 0.574896 7.32014 5.36592 7.32014 11.2548C7.32014 14.659 8.95786 17.8866 11.7011 19.8894C11.7455 19.8894 11.7892 19.9 11.8286 19.9202C11.8681 19.9404 11.9023 19.9696 11.9283 20.0055C11.9543 20.0414 11.9714 20.083 11.9783 20.1268C11.9852 20.1706 11.9816 20.2154 11.9678 20.2576C11.954 20.2997 11.9304 20.338 11.899 20.3693C11.8676 20.4006 11.8292 20.424 11.787 20.4376C11.7448 20.4512 11.7 20.4547 11.6562 20.4476C11.6124 20.4406 11.5709 20.4233 11.5351 20.3971ZM33.4578 35.9871H2.54234C2.50542 35.9871 2.46887 35.9798 2.43476 35.9657C2.40065 35.9516 2.36966 35.9309 2.34355 35.9048C2.31744 35.8787 2.29674 35.8477 2.28261 35.8136C2.26849 35.7795 2.26122 35.743 2.26123 35.706V31.7714C2.26123 29.3588 3.51082 28.435 5.81658 27.5731L6.40313 27.3558C6.73578 27.2328 7.11399 27.0935 7.51941 26.9408C7.66376 26.8876 7.82654 26.9595 7.88138 27.1055C7.90746 27.1753 7.9048 27.2527 7.87399 27.3206C7.84318 27.3885 7.78673 27.4414 7.71699 27.4678C7.31079 27.6204 6.93125 27.7597 6.59775 27.8833L6.01318 28.1001C3.85212 28.907 2.82338 29.6624 2.82338 31.7714V35.425H33.1767V31.7714C33.1767 29.6624 32.1481 28.907 29.9869 28.1001L29.3507 27.8642C29.0004 27.7356 28.6505 27.6056 28.3012 27.4744C28.1562 27.4201 28.0827 27.2581 28.1364 27.1126C28.1913 26.9672 28.3532 26.8947 28.4988 26.9485C28.8472 27.0789 29.1959 27.2085 29.5449 27.3371L30.1839 27.5731C32.4894 28.435 33.7387 29.3587 33.7387 31.7713V35.706C33.7388 35.7429 33.7315 35.7794 33.7174 35.8136C33.7033 35.8477 33.6827 35.8787 33.6566 35.9048C33.6305 35.9309 33.5995 35.9516 33.5654 35.9657C33.5313 35.9798 33.4947 35.9871 33.4578 35.9871Z" fill="black"/>
<path d="M11.5359 23.5985C11.499 23.5985 11.4625 23.5913 11.4284 23.5772C11.3942 23.563 11.3633 23.5423 11.3372 23.5162C11.3111 23.4901 11.2904 23.4592 11.2762 23.425C11.2621 23.3909 11.2549 23.3544 11.2549 23.3175V20.1161C11.2549 20.0792 11.2621 20.0427 11.2762 20.0086C11.2904 19.9745 11.3111 19.9435 11.3372 19.9174C11.3633 19.8913 11.3942 19.8706 11.4284 19.8565C11.4625 19.8423 11.499 19.8351 11.5359 19.8351C11.5728 19.8351 11.6094 19.8423 11.6435 19.8565C11.6776 19.8706 11.7086 19.8913 11.7347 19.9174C11.7608 19.9435 11.7815 19.9745 11.7956 20.0086C11.8097 20.0427 11.817 20.0792 11.817 20.1161V23.3175C11.817 23.3544 11.8097 23.3909 11.7956 23.425C11.7815 23.4592 11.7608 23.4901 11.7347 23.5162C11.7086 23.5423 11.6776 23.563 11.6435 23.5772C11.6094 23.5913 11.5728 23.5985 11.5359 23.5985ZM24.4643 23.621C24.4274 23.621 24.3908 23.6138 24.3567 23.5997C24.3226 23.5856 24.2916 23.5649 24.2654 23.5387C24.2393 23.5126 24.2186 23.4816 24.2045 23.4475C24.1904 23.4134 24.1831 23.3768 24.1832 23.3399V20.115C24.1832 20.0781 24.1904 20.0415 24.2045 20.0074C24.2187 19.9733 24.2394 19.9423 24.2655 19.9162C24.2916 19.8901 24.3226 19.8694 24.3567 19.8553C24.3908 19.8412 24.4274 19.834 24.4643 19.834C24.5012 19.834 24.5377 19.8412 24.5718 19.8553C24.6059 19.8695 24.6369 19.8902 24.663 19.9163C24.6891 19.9424 24.7098 19.9734 24.7239 20.0075C24.738 20.0416 24.7453 20.0781 24.7453 20.115V23.3399C24.7453 23.3768 24.738 23.4134 24.7239 23.4475C24.7098 23.4816 24.6891 23.5126 24.663 23.5387C24.637 23.5648 24.606 23.5855 24.5719 23.5997C24.5378 23.6138 24.5012 23.621 24.4643 23.621Z" fill="black"/>
<path d="M24.4643 21.9347H11.5359C11.3806 21.9347 11.2549 21.809 11.2549 21.6537C11.2549 21.4984 11.3806 21.3726 11.5359 21.3726H24.4643C24.6196 21.3726 24.7452 21.4984 24.7452 21.6537C24.7452 21.809 24.6196 21.9347 24.4643 21.9347ZM10.9735 23.621C10.9004 23.6203 10.8304 23.5911 10.7784 23.5396C10.7264 23.4881 10.6966 23.4184 10.6951 23.3453C10.6937 23.2721 10.7208 23.2013 10.7708 23.1478C10.8207 23.0944 10.8895 23.0625 10.9626 23.0589L25.0154 22.4968C25.1625 22.4793 25.3008 22.6116 25.3073 22.7669C25.3101 22.8414 25.2833 22.9139 25.2327 22.9687C25.182 23.0234 25.1118 23.0559 25.0373 23.0589L10.9851 23.621H10.9735ZM9.84959 10.9738C9.81267 10.9738 9.77612 10.9665 9.74201 10.9524C9.7079 10.9383 9.67691 10.9176 9.6508 10.8915C9.62469 10.8654 9.60399 10.8344 9.58986 10.8003C9.57574 10.7662 9.56847 10.7297 9.56848 10.6927C9.56848 6.35347 13.0987 2.82336 17.4379 2.82336C17.4748 2.82335 17.5113 2.8306 17.5454 2.84472C17.5795 2.85884 17.6105 2.87954 17.6366 2.90564C17.6627 2.93174 17.6834 2.96273 17.6975 2.99683C17.7117 3.03094 17.7189 3.06749 17.7189 3.1044C17.7189 3.14132 17.7117 3.17787 17.6975 3.21197C17.6834 3.24608 17.6627 3.27707 17.6366 3.30317C17.6105 3.32927 17.5795 3.34997 17.5454 3.36409C17.5113 3.3782 17.4748 3.38546 17.4379 3.38544C13.4085 3.38544 10.1306 6.66334 10.1306 10.6927C10.1306 10.7296 10.1233 10.7662 10.1092 10.8003C10.0951 10.8344 10.0744 10.8654 10.0483 10.8915C10.0222 10.9176 9.99125 10.9383 9.95715 10.9524C9.92305 10.9665 9.8865 10.9738 9.84959 10.9738ZM18.0003 25.8694C17.983 25.8694 17.9651 25.8678 17.9473 25.8645L12.0452 24.7403C11.972 24.7263 11.9073 24.6838 11.8654 24.6222C11.8235 24.5605 11.8079 24.4847 11.8219 24.4115C11.8287 24.3752 11.8426 24.3406 11.8629 24.3097C11.8831 24.2788 11.9092 24.2522 11.9398 24.2314C11.9704 24.2107 12.0047 24.1961 12.0409 24.1887C12.0771 24.1813 12.1144 24.1811 12.1506 24.1881L18.0527 25.3123C18.1213 25.3255 18.1825 25.3637 18.2245 25.4196C18.2664 25.4755 18.286 25.545 18.2794 25.6146C18.2729 25.6842 18.2407 25.7488 18.1891 25.7959C18.1375 25.843 18.0702 25.8692 18.0003 25.8694Z" fill="black"/>
<path d="M17.9998 25.8693C17.93 25.869 17.8629 25.8427 17.8114 25.7956C17.7599 25.7485 17.7278 25.684 17.7212 25.6145C17.7147 25.545 17.7342 25.4756 17.776 25.4197C17.8178 25.3639 17.8789 25.3255 17.9474 25.3122L23.8495 24.188C24.0048 24.1611 24.1491 24.2599 24.1782 24.4114C24.1852 24.4477 24.1849 24.4849 24.1774 24.5211C24.1699 24.5573 24.1554 24.5916 24.1347 24.6221C24.1139 24.6527 24.0873 24.6788 24.0565 24.6991C24.0256 24.7194 23.9911 24.7333 23.9548 24.7402L18.0528 25.8644C18.0349 25.8676 18.017 25.8693 17.9998 25.8693ZM19.4053 29.2419H16.5948C16.5426 29.2419 16.4914 29.2273 16.4471 29.1999C16.4027 29.1725 16.3668 29.1333 16.3434 29.0866L15.7813 27.9624C15.7648 27.9294 15.7549 27.8934 15.7523 27.8566C15.7497 27.8198 15.7543 27.7828 15.766 27.7478C15.7777 27.7128 15.7961 27.6804 15.8203 27.6525C15.8445 27.6246 15.874 27.6018 15.907 27.5853C15.9737 27.552 16.0509 27.5466 16.1216 27.5701C16.1923 27.5937 16.2507 27.6444 16.2841 27.711L16.7686 28.6799H19.2319L19.716 27.711C19.7494 27.6444 19.8078 27.5937 19.8785 27.5702C19.9492 27.5466 20.0264 27.552 20.0931 27.5853C20.1597 27.6187 20.2104 27.6771 20.234 27.7478C20.2576 27.8185 20.2522 27.8957 20.2189 27.9624L19.6568 29.0866C19.6334 29.1332 19.5974 29.1725 19.553 29.1999C19.5086 29.2273 19.4575 29.2419 19.4053 29.2419Z" fill="black"/>
<path d="M16.0326 32.0524C15.9978 32.0524 15.9624 32.0458 15.9284 32.0326C15.8592 32.0048 15.8039 31.9508 15.7745 31.8822C15.7451 31.8137 15.7441 31.7364 15.7716 31.6671L16.8958 28.8565C16.9532 28.7121 17.1187 28.6419 17.2611 28.6996C17.3303 28.7274 17.3856 28.7815 17.415 28.85C17.4444 28.9185 17.4454 28.9959 17.4179 29.0652L16.2936 31.8757C16.2727 31.9278 16.2367 31.9725 16.1902 32.004C16.1437 32.0355 16.0888 32.0524 16.0326 32.0524ZM19.9673 32.0524C19.9111 32.0523 19.8562 32.0355 19.8096 32.004C19.763 31.9725 19.7269 31.9278 19.706 31.8756L18.5818 29.0651C18.5244 28.9212 18.595 28.7577 18.7387 28.6995C18.8816 28.6424 19.0468 28.7121 19.1043 28.8565L20.2286 31.667C20.2559 31.7363 20.2547 31.8137 20.2253 31.8821C20.1959 31.9506 20.1406 32.0047 20.0715 32.0326C20.0383 32.0456 20.003 32.0524 19.9673 32.0524ZM14.9502 34.8629C14.8851 34.863 14.822 34.8405 14.7717 34.7992L11.3572 31.9887C11.3134 31.9524 11.2816 31.9038 11.2659 31.8492C11.2503 31.7945 11.2515 31.7364 11.2694 31.6825L11.7708 30.1784L8.54527 27.4908C8.48878 27.4436 8.45302 27.3761 8.44564 27.3029C8.43825 27.2296 8.45983 27.1564 8.50575 27.0989L10.7541 24.2883C10.8513 24.1682 11.0278 24.1473 11.1494 24.2445C11.2075 24.2911 11.2448 24.3589 11.253 24.433C11.2613 24.5071 11.2398 24.5814 11.1933 24.6397L9.11698 27.235L12.2779 29.8687C12.3213 29.905 12.3528 29.9536 12.3682 30.008C12.3836 30.0625 12.3823 30.1203 12.3644 30.174L11.8635 31.6769L15.129 34.3645C15.1865 34.412 15.2228 34.4804 15.23 34.5547C15.2372 34.629 15.2147 34.7031 15.1674 34.7608C15.1409 34.7928 15.1077 34.8185 15.0702 34.8361C15.0326 34.8538 14.9917 34.8629 14.9502 34.8629Z" fill="black"/>
<path d="M16.595 34.863C16.5448 34.8631 16.4954 34.8497 16.4522 34.8242C16.4089 34.7987 16.3733 34.762 16.3491 34.718L10.7281 24.6003C10.6526 24.4653 10.7015 24.294 10.8374 24.2182C10.8697 24.2003 10.9052 24.189 10.9418 24.1848C10.9785 24.1807 11.0157 24.1838 11.0511 24.194C11.0866 24.2042 11.1197 24.2213 11.1486 24.2443C11.1775 24.2673 11.2016 24.2957 11.2194 24.328L16.8404 34.4458C16.9159 34.5809 16.867 34.7521 16.7312 34.8279C16.688 34.8521 16.6411 34.863 16.595 34.863ZM21.0498 34.863C20.9686 34.863 20.8884 34.8279 20.8323 34.7609C20.7852 34.7032 20.7627 34.6291 20.7699 34.5548C20.7771 34.4806 20.8134 34.4122 20.8708 34.3646L24.1363 31.677L23.6352 30.1741C23.6175 30.1204 23.6162 30.0626 23.6317 30.0081C23.6471 29.9537 23.6785 29.9052 23.7218 29.8688L26.8826 27.2351L24.8066 24.6398C24.7602 24.5815 24.7388 24.5072 24.747 24.4331C24.7553 24.359 24.7925 24.2913 24.8506 24.2446C24.8794 24.2215 24.9125 24.2043 24.9479 24.194C24.9834 24.1837 25.0205 24.1805 25.0572 24.1846C25.0939 24.1887 25.1294 24.1999 25.1618 24.2177C25.1941 24.2356 25.2226 24.2596 25.2457 24.2884L27.4942 27.099C27.54 27.1565 27.5616 27.2298 27.5542 27.303C27.5468 27.3762 27.5111 27.4437 27.4547 27.4909L24.2292 30.1785L24.7309 31.6826C24.7486 31.7365 24.7498 31.7946 24.7341 31.8492C24.7185 31.9038 24.6868 31.9524 24.6431 31.9888L21.2287 34.7993C21.1782 34.8406 21.115 34.8631 21.0498 34.863Z" fill="black"/>
<path d="M19.4052 34.8629C19.3576 34.8632 19.3107 34.8511 19.2691 34.8278C19.2368 34.8099 19.2083 34.7858 19.1853 34.757C19.1623 34.7281 19.1452 34.695 19.135 34.6595C19.1248 34.624 19.1217 34.5869 19.1259 34.5502C19.13 34.5135 19.1414 34.478 19.1593 34.4457L24.7803 24.3279C24.8561 24.1918 25.0273 24.143 25.1623 24.2181C25.2985 24.2938 25.3473 24.4652 25.2721 24.6002L19.6512 34.718C19.6269 34.7619 19.5913 34.7985 19.548 34.824C19.5047 34.8495 19.4554 34.863 19.4052 34.8629ZM14.3467 28.1177C14.2986 28.1179 14.2513 28.1056 14.2093 28.0822C14.1673 28.0587 14.1321 28.0248 14.107 27.9838C14.068 27.9203 14.0558 27.844 14.0731 27.7715C14.0903 27.6991 14.1356 27.6364 14.199 27.5973L17.8526 25.349C17.916 25.312 17.9914 25.3013 18.0626 25.3191C18.1338 25.3369 18.1952 25.3819 18.2337 25.4444C18.2721 25.5069 18.2846 25.582 18.2685 25.6536C18.2524 25.7252 18.2089 25.7876 18.1473 25.8276L14.4937 28.076C14.4496 28.1034 14.3986 28.1178 14.3467 28.1177Z" fill="black"/>
<path d="M21.6537 28.1178C21.6017 28.1179 21.5507 28.1034 21.5066 28.076L17.8527 25.8275C17.7909 25.7877 17.7471 25.7252 17.7309 25.6535C17.7146 25.5818 17.7271 25.5065 17.7657 25.4439C17.8042 25.3813 17.8658 25.3363 17.9372 25.3185C18.0085 25.3008 18.084 25.3117 18.1474 25.3489L21.8008 27.5973C21.8322 27.6166 21.8596 27.6419 21.8812 27.6718C21.9029 27.7017 21.9184 27.7355 21.927 27.7714C21.9356 27.8073 21.937 27.8445 21.9311 27.881C21.9253 27.9174 21.9124 27.9523 21.893 27.9837C21.8681 28.0248 21.8329 28.0587 21.791 28.0822C21.749 28.1057 21.7017 28.1179 21.6537 28.1178ZM18 34.863C17.9631 34.863 17.9265 34.8558 17.8924 34.8416C17.8583 34.8275 17.8273 34.8068 17.8012 34.7807C17.7751 34.7546 17.7544 34.7236 17.7403 34.6895C17.7262 34.6554 17.7189 34.6189 17.7189 34.5819V30.6472C17.7189 30.6103 17.7262 30.5737 17.7403 30.5396C17.7544 30.5055 17.7751 30.4745 17.8012 30.4484C17.8273 30.4223 17.8583 30.4016 17.8924 30.3875C17.9266 30.3734 17.9631 30.3662 18 30.3662C18.0369 30.3662 18.0735 30.3734 18.1076 30.3876C18.1417 30.4017 18.1727 30.4224 18.1988 30.4485C18.2249 30.4745 18.2456 30.5055 18.2597 30.5396C18.2739 30.5737 18.2811 30.6103 18.2811 30.6472V34.5819C18.2811 34.6189 18.2739 34.6554 18.2598 34.6895C18.2456 34.7236 18.2249 34.7546 18.1988 34.7807C18.1727 34.8068 18.1417 34.8275 18.1076 34.8416C18.0735 34.8557 18.0369 34.863 18 34.863ZM16.5948 20.8105C16.5578 20.8105 16.5213 20.8033 16.4872 20.7892C16.4531 20.7751 16.4221 20.7544 16.396 20.7283C16.3699 20.7022 16.3492 20.6712 16.3351 20.6371C16.321 20.603 16.3137 20.5664 16.3137 20.5295V18.281C16.3137 18.2441 16.321 18.2076 16.3351 18.1735C16.3492 18.1394 16.3699 18.1084 16.396 18.0823C16.4221 18.0562 16.4531 18.0355 16.4872 18.0214C16.5213 18.0072 16.5578 18 16.5948 18C16.6317 18 16.6682 18.0072 16.7024 18.0213C16.7365 18.0354 16.7675 18.0561 16.7936 18.0822C16.8197 18.1083 16.8404 18.1393 16.8545 18.1735C16.8686 18.2076 16.8759 18.2441 16.8759 18.281V20.5295C16.8759 20.5664 16.8686 20.603 16.8545 20.6371C16.8404 20.6712 16.8197 20.7022 16.7936 20.7283C16.7675 20.7544 16.7365 20.7751 16.7024 20.7892C16.6682 20.8033 16.6317 20.8106 16.5948 20.8105ZM19.4053 20.8105C19.3684 20.8105 19.3318 20.8033 19.2977 20.7892C19.2636 20.7751 19.2326 20.7544 19.2065 20.7283C19.1804 20.7022 19.1597 20.6712 19.1456 20.6371C19.1314 20.603 19.1242 20.5664 19.1242 20.5295V18.281C19.1242 18.1257 19.25 18 19.4053 18C19.5606 18 19.6863 18.1257 19.6863 18.281V20.5295C19.6863 20.5664 19.679 20.603 19.6649 20.6371C19.6508 20.6712 19.6301 20.7022 19.604 20.7283C19.5779 20.7544 19.547 20.7751 19.5129 20.7892C19.4787 20.8033 19.4422 20.8105 19.4053 20.8105Z" fill="black"/>
<path d="M16.595 18.5621C16.5528 18.5621 16.5112 18.5526 16.4731 18.5344C16.4351 18.5162 16.4016 18.4896 16.3752 18.4567C16.3287 18.3984 16.3072 18.3241 16.3154 18.25C16.3237 18.1759 16.361 18.1081 16.4192 18.0615L17.8244 16.9373C17.946 16.8401 18.1223 16.8607 18.2197 16.9812C18.2662 17.0395 18.2877 17.1138 18.2795 17.188C18.2712 17.2621 18.2339 17.3299 18.1757 17.3765L16.7705 18.5007C16.7207 18.5405 16.6588 18.5621 16.595 18.5621Z" fill="black"/>
<path d="M19.4053 18.562C19.3415 18.5622 19.2795 18.5405 19.2297 18.5006L17.8244 17.3764C17.7662 17.3297 17.729 17.2619 17.7207 17.1878C17.7125 17.1137 17.734 17.0394 17.7804 16.9811C17.8779 16.8612 18.0544 16.8404 18.1757 16.9372L19.5809 18.0613C19.639 18.1081 19.6762 18.1759 19.6844 18.2499C19.6926 18.3239 19.6712 18.3982 19.6249 18.4566C19.5985 18.4895 19.5651 18.516 19.5271 18.5343C19.4891 18.5525 19.4475 18.562 19.4053 18.562ZM19.4053 16.8758C19.3684 16.8758 19.3318 16.8686 19.2977 16.8544C19.2636 16.8403 19.2326 16.8196 19.2065 16.7935C19.1804 16.7674 19.1597 16.7364 19.1455 16.7023C19.1314 16.6682 19.1242 16.6316 19.1242 16.5947V12.0979C19.1242 11.9426 19.25 11.8169 19.4053 11.8169C19.5606 11.8169 19.6863 11.9426 19.6863 12.0979V16.5948C19.6863 16.6317 19.679 16.6682 19.6649 16.7023C19.6508 16.7364 19.6301 16.7674 19.604 16.7935C19.5779 16.8196 19.547 16.8403 19.5129 16.8545C19.4787 16.8686 19.4422 16.8758 19.4053 16.8758ZM16.5948 16.8758C16.5578 16.8758 16.5213 16.8686 16.4872 16.8544C16.4531 16.8403 16.4221 16.8196 16.396 16.7935C16.3699 16.7674 16.3492 16.7364 16.3351 16.7023C16.3209 16.6682 16.3137 16.6316 16.3137 16.5947V12.0979C16.3137 12.061 16.321 12.0245 16.3351 11.9904C16.3492 11.9563 16.3699 11.9253 16.396 11.8992C16.4221 11.8731 16.4531 11.8524 16.4872 11.8382C16.5213 11.8241 16.5578 11.8169 16.5948 11.8169C16.6317 11.8169 16.6682 11.8241 16.7024 11.8382C16.7365 11.8523 16.7675 11.873 16.7936 11.8991C16.8197 11.9252 16.8404 11.9562 16.8545 11.9903C16.8686 12.0245 16.8759 12.061 16.8759 12.0979V16.5948C16.8759 16.6317 16.8686 16.6682 16.8545 16.7024C16.8404 16.7365 16.8197 16.7675 16.7936 16.7936C16.7675 16.8197 16.7365 16.8404 16.7024 16.8545C16.6682 16.8686 16.6317 16.8758 16.5948 16.8758Z" fill="black"/>
<path d="M15.1895 13.7842C14.2596 13.7842 13.5032 13.0278 13.5032 12.0979C13.5032 11.168 14.2596 10.4117 15.1895 10.4117C16.1194 10.4117 16.8758 11.1681 16.8758 12.0979C16.8758 12.1348 16.8686 12.1714 16.8544 12.2055C16.8403 12.2397 16.8196 12.2707 16.7935 12.2968C16.7674 12.3229 16.7364 12.3436 16.7023 12.3577C16.6682 12.3718 16.6316 12.3791 16.5947 12.379C16.5578 12.3791 16.5212 12.3718 16.4871 12.3577C16.453 12.3436 16.422 12.3228 16.3959 12.2967C16.3698 12.2706 16.3491 12.2396 16.335 12.2055C16.3209 12.1714 16.3136 12.1348 16.3136 12.0979C16.3136 11.478 15.8095 10.9738 15.1895 10.9738C14.5695 10.9738 14.0653 11.478 14.0653 12.0979C14.0653 12.7179 14.5694 13.2222 15.1895 13.2222C15.2264 13.2221 15.263 13.2294 15.2971 13.2435C15.3312 13.2576 15.3622 13.2783 15.3883 13.3045C15.4144 13.3306 15.4351 13.3616 15.4492 13.3957C15.4633 13.4298 15.4705 13.4663 15.4705 13.5033C15.4705 13.5402 15.4633 13.5767 15.4491 13.6108C15.435 13.6449 15.4143 13.6759 15.3882 13.702C15.3621 13.7281 15.3311 13.7488 15.297 13.7629C15.2629 13.777 15.2264 13.7842 15.1895 13.7842ZM20.8105 13.7842C20.7736 13.7843 20.7371 13.777 20.7029 13.7629C20.6688 13.7488 20.6378 13.7281 20.6117 13.702C20.5856 13.6759 20.5649 13.6449 20.5508 13.6108C20.5367 13.5767 20.5294 13.5401 20.5294 13.5032C20.5294 13.4663 20.5367 13.4297 20.5508 13.3956C20.5649 13.3615 20.5856 13.3305 20.6117 13.3044C20.6378 13.2782 20.6688 13.2575 20.7029 13.2434C20.7371 13.2293 20.7736 13.2221 20.8105 13.2221C21.4307 13.2221 21.9347 12.7179 21.9347 12.0979C21.9347 11.4779 21.4307 10.9737 20.8105 10.9737C20.1902 10.9737 19.6862 11.4779 19.6862 12.0979C19.6862 12.2532 19.5606 12.379 19.4053 12.379C19.25 12.379 19.1242 12.2532 19.1242 12.0979C19.1242 11.168 19.8806 10.4116 20.8105 10.4116C21.7404 10.4116 22.4968 11.168 22.4968 12.0979C22.4968 13.0278 21.7404 13.7842 20.8105 13.7842Z" fill="black"/>
<path d="M20.8106 13.7843H20.5295C20.4926 13.7843 20.4561 13.7771 20.4219 13.763C20.3878 13.7488 20.3568 13.7281 20.3307 13.702C20.3046 13.6759 20.2839 13.645 20.2698 13.6109C20.2557 13.5767 20.2484 13.5402 20.2484 13.5033C20.2484 13.4664 20.2557 13.4298 20.2698 13.3957C20.2839 13.3616 20.3046 13.3306 20.3307 13.3045C20.3568 13.2784 20.3878 13.2576 20.4219 13.2435C20.456 13.2294 20.4926 13.2221 20.5295 13.2222H20.8106C20.8475 13.2221 20.8841 13.2294 20.9182 13.2435C20.9523 13.2577 20.9833 13.2784 21.0094 13.3045C21.0355 13.3306 21.0562 13.3616 21.0703 13.3957C21.0844 13.4298 21.0916 13.4664 21.0916 13.5033C21.0916 13.5402 21.0844 13.5767 21.0703 13.6108C21.0562 13.6449 21.0355 13.6759 21.0094 13.702C20.9833 13.7281 20.9523 13.7488 20.9182 13.763C20.8841 13.7771 20.8475 13.7843 20.8106 13.7843Z" fill="black"/>
<path d="M15.4705 13.7843H15.1895C15.1526 13.7843 15.116 13.7771 15.0819 13.763C15.0478 13.7488 15.0168 13.7281 14.9907 13.702C14.9646 13.6759 14.9439 13.645 14.9298 13.6108C14.9157 13.5767 14.9084 13.5402 14.9084 13.5033C14.9084 13.4664 14.9157 13.4298 14.9298 13.3957C14.9439 13.3616 14.9646 13.3306 14.9907 13.3045C15.0168 13.2784 15.0478 13.2577 15.0819 13.2435C15.116 13.2294 15.1526 13.2221 15.1895 13.2222H15.4705C15.5074 13.2221 15.544 13.2294 15.5781 13.2435C15.6122 13.2577 15.6432 13.2784 15.6693 13.3045C15.6954 13.3306 15.7161 13.3616 15.7302 13.3957C15.7443 13.4298 15.7516 13.4664 15.7516 13.5033C15.7516 13.5402 15.7443 13.5767 15.7302 13.6108C15.7161 13.645 15.6954 13.6759 15.6693 13.702C15.6432 13.7281 15.6122 13.7488 15.5781 13.763C15.544 13.7771 15.5074 13.7843 15.4705 13.7843Z" fill="black"/>
<path d="M18.2811 13.7843H17.7189C17.682 13.7843 17.6454 13.7771 17.6113 13.763C17.5772 13.7488 17.5462 13.7281 17.5201 13.702C17.494 13.6759 17.4733 13.645 17.4592 13.6108C17.4451 13.5767 17.4378 13.5402 17.4379 13.5033C17.4378 13.4664 17.4451 13.4298 17.4592 13.3957C17.4733 13.3616 17.494 13.3306 17.5201 13.3045C17.5462 13.2784 17.5772 13.2577 17.6113 13.2435C17.6454 13.2294 17.682 13.2221 17.7189 13.2222H18.2811C18.318 13.2221 18.3545 13.2294 18.3886 13.2435C18.4227 13.2577 18.4537 13.2784 18.4798 13.3045C18.5059 13.3306 18.5266 13.3616 18.5407 13.3957C18.5548 13.4298 18.5621 13.4664 18.562 13.5033C18.562 13.5402 18.5548 13.5767 18.5407 13.6108C18.5266 13.6449 18.5059 13.6759 18.4798 13.702C18.4537 13.7281 18.4227 13.7488 18.3886 13.763C18.3545 13.7771 18.318 13.7843 18.2811 13.7843Z" fill="black"/>
</svg>
