<svg width="36" height="36" viewBox="0 0 36 36" fill="none" xmlns="http://www.w3.org/2000/svg">
<g clip-path="url(#clip0_440_50)">
<path d="M13.3571 25.3053C9.97761 25.3053 6.80131 23.9892 4.41174 21.5997C-0.521035 16.6675 -0.521035 8.64173 4.41174 3.70895C6.80124 1.31945 9.97761 0.00390625 13.3565 0.00390625C16.7355 0.00390625 19.9123 1.31945 22.3013 3.70895C24.6915 6.09845 26.0076 9.27538 26.0082 12.6544C26.0082 16.0333 24.692 19.2102 22.3025 21.5998C19.9129 23.9893 16.736 25.3053 13.3571 25.3053ZM13.3565 0.566125C10.128 0.566125 7.09226 1.82352 4.80922 4.10657C0.0960278 8.81969 0.0960278 16.489 4.80922 21.2023C7.09226 23.4859 10.128 24.7431 13.357 24.7431C16.5856 24.7431 19.6213 23.4858 21.9049 21.2023C24.1885 18.9192 25.4457 15.8834 25.4457 12.6545C25.4452 9.42536 24.1878 6.39018 21.9037 4.10664C19.6208 1.82352 16.5856 0.566125 13.3565 0.566125Z" fill="black"/>
<path d="M13.3566 24.1797C10.278 24.1797 7.38333 22.9811 5.20681 20.8046C3.03036 18.6281 1.83118 15.734 1.83118 12.6549C1.83174 9.57569 3.03036 6.68155 5.20681 4.50454C7.38333 2.32802 10.278 1.12891 13.3572 1.12891C16.4358 1.12891 19.3298 2.32752 21.5064 4.50398C25.9993 8.99807 25.9999 16.3105 21.5075 20.8046C19.3304 22.9811 16.4357 24.1797 13.3566 24.1797ZM13.3572 1.69113C10.4284 1.69113 7.67492 2.83152 5.60436 4.90202C3.53379 6.97258 2.39396 9.72609 2.3934 12.6548C2.3934 15.5835 3.53379 18.337 5.60436 20.407C7.67485 22.4775 10.4279 23.6174 13.3566 23.6174C16.2859 23.6174 19.0394 22.4775 21.11 20.407C25.3828 16.132 25.3828 9.17645 21.1088 4.90145C19.0388 2.83152 16.2859 1.69113 13.3572 1.69113Z" fill="black"/>
<path d="M4.36119 12.9361C4.32426 12.9361 4.2877 12.9288 4.25358 12.9147C4.21946 12.9006 4.18846 12.8799 4.16235 12.8538C4.13624 12.8277 4.11554 12.7967 4.10142 12.7626C4.0873 12.7285 4.08005 12.6919 4.08008 12.655C4.07952 10.1776 5.04477 7.84791 6.79688 6.09579C8.54949 4.34318 10.8786 3.37793 13.3565 3.37793C13.3935 3.37791 13.43 3.38517 13.4642 3.3993C13.4983 3.41342 13.5293 3.43413 13.5554 3.46025C13.5815 3.48636 13.6022 3.51737 13.6163 3.55149C13.6304 3.58561 13.6377 3.62218 13.6377 3.65911C13.6377 3.69603 13.6304 3.73259 13.6163 3.76671C13.6022 3.80082 13.5815 3.83182 13.5554 3.85792C13.5293 3.88403 13.4983 3.90474 13.4641 3.91886C13.43 3.93298 13.3935 3.94024 13.3565 3.94022C11.0291 3.94022 8.84101 4.84676 7.19436 6.49341C5.54827 8.13949 4.6423 10.3275 4.6423 12.655C4.64231 12.6919 4.63504 12.7285 4.62092 12.7626C4.60679 12.7967 4.58608 12.8277 4.55998 12.8538C4.53387 12.8799 4.50288 12.9006 4.46877 12.9147C4.43466 12.9288 4.3981 12.9361 4.36119 12.9361ZM24.2681 25.8341C24.2311 25.8342 24.1946 25.8269 24.1605 25.8128C24.1264 25.7986 24.0954 25.7779 24.0694 25.7517L21.5074 23.1898C21.3976 23.08 21.3976 22.902 21.5074 22.7923C21.6172 22.6825 21.7951 22.6824 21.9049 22.7923L24.4668 25.3542C24.4929 25.3803 24.5137 25.4113 24.5278 25.4454C24.5419 25.4795 24.5492 25.5161 24.5492 25.553C24.5492 25.5899 24.5419 25.6264 24.5278 25.6605C24.5137 25.6946 24.4929 25.7256 24.4668 25.7517C24.4408 25.7779 24.4098 25.7986 24.3757 25.8128C24.3416 25.8269 24.305 25.8342 24.2681 25.8341ZM26.2557 23.8476C26.2188 23.8476 26.1822 23.8404 26.1481 23.8262C26.114 23.8121 26.083 23.7914 26.057 23.7653L23.495 21.2022C23.4689 21.1761 23.4482 21.1451 23.4341 21.111C23.42 21.0769 23.4127 21.0404 23.4127 21.0034C23.4127 20.9665 23.42 20.93 23.4341 20.8959C23.4482 20.8618 23.4689 20.8308 23.495 20.8047C23.5211 20.7786 23.5521 20.7579 23.5862 20.7437C23.6203 20.7296 23.6569 20.7223 23.6938 20.7223C23.7307 20.7223 23.7672 20.7296 23.8014 20.7437C23.8355 20.7579 23.8664 20.7786 23.8925 20.8047L26.4545 23.3677C26.4938 23.407 26.5207 23.4571 26.5315 23.5116C26.5424 23.5662 26.5368 23.6227 26.5155 23.6741C26.4943 23.7255 26.4582 23.7694 26.412 23.8003C26.3657 23.8312 26.3113 23.8476 26.2557 23.8476Z" fill="black"/>
<path d="M23.8706 26.2327C23.815 26.2327 23.7606 26.2163 23.7143 26.1854C23.6681 26.1545 23.632 26.1106 23.6107 26.0592C23.5895 26.0078 23.5839 25.9513 23.5948 25.8967C23.6056 25.8422 23.6324 25.7921 23.6718 25.7528L26.4545 22.9702C26.5643 22.8604 26.7422 22.8604 26.852 22.9702C26.9617 23.08 26.9618 23.2579 26.852 23.3677L24.0693 26.1504C24.0433 26.1765 24.0123 26.1972 23.9782 26.2113C23.944 26.2255 23.9075 26.2327 23.8706 26.2327Z" fill="black"/>
<path d="M34.3918 31.1885C34.3549 31.1885 34.3183 31.1813 34.2842 31.1672C34.2501 31.153 34.2191 31.1323 34.1931 31.1062L26.4545 23.3677C26.4284 23.3416 26.4077 23.3106 26.3936 23.2765C26.3794 23.2424 26.3722 23.2058 26.3722 23.1689C26.3722 23.132 26.3794 23.0955 26.3936 23.0613C26.4077 23.0272 26.4284 22.9963 26.4545 22.9702C26.4806 22.9441 26.5116 22.9234 26.5457 22.9092C26.5798 22.8951 26.6164 22.8878 26.6533 22.8878C26.6902 22.8878 26.7267 22.8951 26.7608 22.9092C26.7949 22.9234 26.8259 22.9441 26.852 22.9702L34.5906 30.7087C34.6299 30.748 34.6567 30.7981 34.6676 30.8526C34.6784 30.9071 34.6728 30.9637 34.6516 31.015C34.6303 31.0664 34.5942 31.1103 34.548 31.1412C34.5018 31.1721 34.4474 31.1885 34.3918 31.1885ZM31.6465 34.0074C31.6096 34.0075 31.573 34.0002 31.5389 33.9861C31.5048 33.9719 31.4738 33.9512 31.4477 33.9251L23.6718 26.1503C23.6457 26.1242 23.625 26.0933 23.6109 26.0591C23.5968 26.025 23.5895 25.9885 23.5895 25.9516C23.5895 25.9146 23.5968 25.8781 23.6109 25.844C23.625 25.8099 23.6457 25.7789 23.6718 25.7528C23.6979 25.7267 23.7289 25.706 23.763 25.6918C23.7971 25.6777 23.8337 25.6704 23.8706 25.6704C23.9075 25.6704 23.9441 25.6777 23.9782 25.6918C24.0123 25.706 24.0433 25.7267 24.0694 25.7528L31.8452 33.5275C31.8846 33.5668 31.9114 33.6169 31.9223 33.6715C31.9331 33.726 31.9276 33.7825 31.9063 33.8339C31.885 33.8853 31.849 33.9292 31.8027 33.9601C31.7565 33.991 31.7021 34.0074 31.6465 34.0074Z" fill="black"/>
<path d="M33.0395 34.5851C32.4377 34.5851 31.8728 34.3506 31.4477 33.9251C31.4216 33.899 31.4009 33.868 31.3868 33.8339C31.3726 33.7998 31.3654 33.7632 31.3654 33.7263C31.3654 33.6894 31.3726 33.6528 31.3868 33.6187C31.4009 33.5846 31.4216 33.5536 31.4477 33.5275C31.5006 33.4749 31.5722 33.4454 31.6468 33.4454C31.7214 33.4454 31.793 33.4749 31.8458 33.5275C32.1643 33.8471 32.5882 34.0228 33.0395 34.0228H33.0401C33.2613 34.0234 33.4805 33.9801 33.6848 33.8953C33.8891 33.8106 34.0746 33.6861 34.2305 33.5291C34.5501 33.2102 34.7257 32.7864 34.7257 32.336C34.7257 31.8859 34.5501 31.4619 34.2305 31.1423C34.2044 31.1162 34.1837 31.0852 34.1695 31.0511C34.1554 31.017 34.1481 30.9805 34.1481 30.9436C34.1481 30.9067 34.1554 30.8701 34.1695 30.836C34.1837 30.8019 34.2044 30.7709 34.2305 30.7448C34.2566 30.7187 34.2876 30.698 34.3217 30.6839C34.3558 30.6698 34.3923 30.6625 34.4292 30.6625C34.4661 30.6625 34.5027 30.6698 34.5368 30.6839C34.5709 30.698 34.6019 30.7187 34.628 30.7448C35.0535 31.1704 35.288 31.7353 35.288 32.336C35.288 32.9367 35.0535 33.5017 34.628 33.9267C34.2046 34.3505 33.6408 34.585 33.0401 34.585H33.0395V34.5851ZM28.8639 35.9961C28.827 35.9962 28.7904 35.9889 28.7563 35.9748C28.7222 35.9606 28.6912 35.9399 28.6651 35.9137C28.639 35.8876 28.6183 35.8566 28.6042 35.8225C28.59 35.7884 28.5828 35.7519 28.5828 35.715C28.5828 35.6781 28.59 35.6415 28.6042 35.6074C28.6183 35.5733 28.639 35.5423 28.6651 35.5162L30.6528 33.5275C30.6789 33.5014 30.7099 33.4807 30.744 33.4666C30.7781 33.4524 30.8146 33.4452 30.8515 33.4452C30.8884 33.4452 30.925 33.4524 30.9591 33.4666C30.9932 33.4807 31.0242 33.5014 31.0503 33.5275C31.0764 33.5536 31.0971 33.5846 31.1112 33.6187C31.1253 33.6528 31.1326 33.6894 31.1326 33.7263C31.1326 33.7632 31.1253 33.7998 31.1112 33.8339C31.0971 33.868 31.0764 33.899 31.0503 33.9251L29.0626 35.9137C29.0366 35.9399 29.0056 35.9606 28.9715 35.9748C28.9374 35.9889 28.9008 35.9962 28.8639 35.9961Z" fill="black"/>
<path d="M28.8638 35.9962C28.8269 35.9962 28.7903 35.9889 28.7562 35.9748C28.7221 35.9607 28.6911 35.9399 28.665 35.9138L27.075 34.3226C27.0489 34.2965 27.0281 34.2655 27.014 34.2314C26.9999 34.1973 26.9926 34.1608 26.9926 34.1238C26.9926 34.0869 26.9999 34.0504 27.014 34.0163C27.0281 33.9822 27.0489 33.9512 27.075 33.9251L27.2737 33.7263L26.8762 33.3289L26.6774 33.5276C26.6513 33.5537 26.6203 33.5744 26.5862 33.5885C26.5521 33.6026 26.5156 33.6099 26.4787 33.6099C26.4418 33.6099 26.4052 33.6026 26.3711 33.5885C26.337 33.5744 26.306 33.5537 26.2799 33.5276L25.8825 33.1301C25.8455 33.0932 25.8196 33.0467 25.8077 32.9959C25.7957 32.945 25.7982 32.8919 25.8149 32.8424L26.157 31.8151L26.0812 31.7387L25.4838 32.3356C25.431 32.3881 25.3595 32.4176 25.2849 32.4175C25.2104 32.4174 25.139 32.3877 25.0863 32.335L24.2912 31.54C24.2651 31.5139 24.2444 31.4829 24.2303 31.4488C24.2161 31.4147 24.2089 31.3781 24.2089 31.3412C24.2089 31.3043 24.2161 31.2677 24.2303 31.2336C24.2444 31.1995 24.2651 31.1685 24.2912 31.1424C24.3173 31.1163 24.3483 31.0956 24.3824 31.0815C24.4165 31.0673 24.4531 31.0601 24.49 31.0601C24.5269 31.0601 24.5635 31.0673 24.5976 31.0815C24.6317 31.0956 24.6627 31.1163 24.6888 31.1424L25.285 31.7387L25.8824 31.1424C25.9352 31.0898 26.0066 31.0603 26.0811 31.0603C26.1556 31.0603 26.2271 31.0898 26.2799 31.1424L26.6773 31.54C26.7142 31.5769 26.7402 31.6234 26.7522 31.6742C26.7642 31.725 26.7619 31.7781 26.7455 31.8277L26.4028 32.8555L26.4786 32.9312L26.6773 32.7325C26.7034 32.7064 26.7344 32.6857 26.7685 32.6716C26.8026 32.6574 26.8392 32.6502 26.8761 32.6502C26.913 32.6502 26.9496 32.6574 26.9837 32.6716C27.0178 32.6857 27.0488 32.7064 27.0749 32.7325L27.8699 33.5276C27.896 33.5537 27.9167 33.5846 27.9309 33.6188C27.945 33.6529 27.9523 33.6894 27.9523 33.7263C27.9523 33.7633 27.945 33.7998 27.9309 33.8339C27.9167 33.868 27.896 33.899 27.8699 33.9251L27.6712 34.1238L29.0625 35.5163C29.0886 35.5424 29.1093 35.5734 29.1234 35.6075C29.1376 35.6416 29.1448 35.6781 29.1448 35.715C29.1448 35.7519 29.1376 35.7885 29.1234 35.8226C29.1093 35.8567 29.0886 35.8877 29.0625 35.9138C29.0364 35.9399 29.0055 35.9607 28.9714 35.9748C28.9373 35.989 28.9007 35.9962 28.8638 35.9962Z" fill="black"/>
<path d="M24.4899 31.6223C24.4343 31.6223 24.38 31.6058 24.3337 31.5749C24.2875 31.5441 24.2514 31.5002 24.2301 31.4488C24.2089 31.3974 24.2033 31.3409 24.2142 31.2863C24.225 31.2318 24.2518 31.1817 24.2912 31.1424L26.2799 29.1548C26.306 29.1287 26.337 29.108 26.3711 29.0938C26.4052 29.0797 26.4417 29.0724 26.4786 29.0724C26.5155 29.0724 26.5521 29.0797 26.5862 29.0938C26.6203 29.108 26.6513 29.1287 26.6774 29.1548C26.7035 29.1809 26.7242 29.2119 26.7383 29.246C26.7525 29.2801 26.7597 29.3166 26.7597 29.3535C26.7597 29.3904 26.7525 29.427 26.7383 29.4611C26.7242 29.4952 26.7035 29.5262 26.6774 29.5523L24.6887 31.5399C24.6627 31.5661 24.6317 31.5868 24.5976 31.601C24.5634 31.6151 24.5269 31.6223 24.4899 31.6223ZM28.0687 35.2011C28.0131 35.2011 27.9587 35.1847 27.9125 35.1538C27.8662 35.1229 27.8302 35.079 27.8089 35.0276C27.7876 34.9762 27.7821 34.9197 27.7929 34.8652C27.8038 34.8106 27.8306 34.7605 27.8699 34.7212L28.0687 34.5225C28.0948 34.4964 28.1258 34.4757 28.1599 34.4616C28.194 34.4474 28.2305 34.4402 28.2675 34.4402C28.3044 34.4402 28.3409 34.4474 28.375 34.4616C28.4091 34.4757 28.4401 34.4964 28.4662 34.5225C28.4923 34.5486 28.513 34.5796 28.5271 34.6137C28.5413 34.6478 28.5485 34.6843 28.5485 34.7213C28.5485 34.7582 28.5413 34.7947 28.5271 34.8288C28.513 34.8629 28.4923 34.8939 28.4662 34.92L28.2675 35.1188C28.2414 35.1449 28.2104 35.1656 28.1763 35.1798C28.1422 35.1939 28.1056 35.2012 28.0687 35.2011ZM33.6341 32.0198C33.5972 32.0199 33.5606 32.0126 33.5265 31.9985C33.4924 31.9844 33.4614 31.9636 33.4353 31.9375L26.4545 24.9567C26.4284 24.9306 26.4077 24.8996 26.3936 24.8655C26.3795 24.8314 26.3722 24.7949 26.3722 24.7579C26.3722 24.721 26.3795 24.6845 26.3936 24.6504C26.4077 24.6163 26.4284 24.5853 26.4545 24.5592C26.4806 24.5331 26.5116 24.5123 26.5457 24.4982C26.5798 24.4841 26.6164 24.4768 26.6533 24.4768C26.6902 24.4768 26.7268 24.4841 26.7609 24.4982C26.795 24.5123 26.8259 24.5331 26.852 24.5592L33.8328 31.54C33.8721 31.5793 33.899 31.6294 33.9098 31.6839C33.9207 31.7384 33.9152 31.795 33.8939 31.8463C33.8726 31.8977 33.8366 31.9416 33.7903 31.9725C33.7441 32.0034 33.6897 32.0199 33.6341 32.0198Z" fill="black"/>
</g>
<defs>
<clipPath id="clip0_440_50">
<rect width="36" height="36" fill="white"/>
</clipPath>
</defs>
</svg>
