<svg width="36" height="36" viewBox="0 0 36 36" fill="none" xmlns="http://www.w3.org/2000/svg">
<path d="M23.955 25.5465C21.7365 27.4035 18.879 28.524 15.7635 28.524C8.718 28.524 3 22.806 3 15.762C3 8.718 8.718 3 15.7635 3C22.806 3 28.5255 8.718 28.5255 15.762C28.5255 18.879 27.405 21.738 25.548 23.9535L32.6715 31.0785C32.8905 31.2975 33 31.5855 33 31.875C33 32.7555 32.1945 33 31.875 33C31.587 33 31.299 32.8905 31.0785 32.67L23.955 25.5465ZM15.7635 5.2515C9.9615 5.2515 5.253 9.9615 5.253 15.762C5.253 21.5625 9.9615 26.2725 15.7635 26.2725C21.5625 26.2725 26.274 21.5625 26.274 15.762C26.274 9.9615 21.5625 5.2515 15.7635 5.2515Z" fill="#2B3773"/>
</svg>
