<svg width="36" height="36" viewBox="0 0 36 36" fill="none" xmlns="http://www.w3.org/2000/svg">
<path d="M13.624 3.74658C10.1418 3.74658 6.87262 5.62775 5.09261 8.65626C4.9358 8.92259 5.02255 9.26814 5.28669 9.42603C5.37566 9.47997 5.47353 9.50526 5.57029 9.50526C5.76047 9.50526 5.94508 9.40749 6.04907 9.2305C7.63 6.54136 10.5322 4.87034 13.624 4.87034C13.9315 4.87034 14.1801 4.61918 14.1801 4.30846C14.1801 3.99774 13.9315 3.74658 13.624 3.74658Z" fill="black"/>
<path d="M4.63549 11.059C4.33688 10.9893 4.03771 11.1759 3.96764 11.4782C3.80137 12.1951 3.7074 12.6396 3.7074 13.4374C3.7074 13.7482 3.95652 13.9993 4.26348 13.9993C4.57099 13.9993 4.81956 13.7482 4.81956 13.4374C4.81956 12.7604 4.89463 12.407 5.05033 11.7338C5.12039 11.4315 4.93466 11.1298 4.63549 11.059Z" fill="black"/>
<path d="M25.6914 21.5277L25.6914 21.5277L34.6673 30.5967C35.2043 31.1403 35.4995 31.8601 35.5 32.6302C35.4999 33.3988 35.2048 34.1192 34.6684 34.6613C34.1306 35.2039 33.4212 35.5 32.6641 35.5C31.9065 35.5 31.1976 35.2039 30.659 34.6612L21.6832 25.5913L21.6832 25.5913C21.5386 25.4451 21.4209 25.293 21.3287 25.1389L21.0639 24.6965L20.6299 24.9747C18.6007 26.2754 16.1992 27.0314 13.6239 27.0314C6.39284 27.0314 0.5 21.0856 0.5 13.766C0.5 6.44628 6.39287 0.5 13.6239 0.5C20.8555 0.5 26.7479 6.44626 26.7479 13.766C26.7479 16.1959 26.0957 18.4727 24.9632 20.4331L24.7062 20.8779L25.1578 21.1228C25.3286 21.2154 25.5085 21.343 25.6914 21.5277ZM33.8045 33.7768L33.8061 33.7751C34.1082 33.4683 34.2743 33.0603 34.2751 32.6314V32.6304C34.2751 32.1993 34.1089 31.7905 33.8047 31.4831L24.8295 22.4138L24.8283 22.4126C24.7721 22.3562 24.7189 22.3108 24.6696 22.275C24.6347 22.2498 24.5642 22.2013 24.4763 22.174L24.258 22.1062L24.1132 22.1962C24.1048 22.1994 24.096 22.2029 24.0869 22.2067C24.0232 22.233 23.9478 22.2718 23.8578 22.3294C23.68 22.4435 23.4357 22.6379 23.1022 22.9758C22.4582 23.6254 22.3061 23.9704 22.291 24.1897L22.2541 24.7242H22.5628L31.5207 33.7761L31.5212 33.7765C32.1373 34.3974 33.1882 34.3971 33.8045 33.7768ZM22.3942 24.5287L22.3946 24.5292C22.3931 24.5273 22.3928 24.5268 22.3942 24.5287ZM13.6239 1.74807C7.057 1.74807 1.72432 7.14385 1.72432 13.7665C1.72432 20.3898 7.05705 25.7844 13.6239 25.7844C20.1903 25.7844 25.5236 20.3899 25.5236 13.7665C25.5236 7.14386 20.1914 1.74807 13.6239 1.74807Z" fill="black" stroke="black"/>
</svg>
