<svg width="36" height="36" viewBox="0 0 36 36" fill="none" xmlns="http://www.w3.org/2000/svg">
<g clip-path="url(#clip0_440_59)">
<path d="M12.0718 25.2325C12.001 25.2326 11.9328 25.2058 11.8808 25.1576C11.8289 25.1095 11.7971 25.0434 11.7918 24.9728C11.789 24.936 11.7934 24.8989 11.805 24.8638C11.8165 24.8288 11.8348 24.7963 11.8589 24.7683C11.8829 24.7403 11.9123 24.7173 11.9453 24.7006C11.9783 24.684 12.0142 24.674 12.051 24.6713L33.2227 23.0791L35.3855 9.56429H7.87698C7.72152 9.56429 7.59573 9.43857 7.59573 9.28311C7.59572 9.24618 7.60298 9.2096 7.61711 9.17547C7.63123 9.14134 7.65195 9.11034 7.67807 9.08422C7.70419 9.05811 7.73521 9.0374 7.76934 9.02328C7.80347 9.00916 7.84005 9.0019 7.87698 9.00193H35.715C35.7557 9.00197 35.7959 9.01082 35.8328 9.02788C35.8697 9.04494 35.9025 9.0698 35.9289 9.10076C35.9553 9.13171 35.9747 9.16802 35.9858 9.20718C35.9968 9.24634 35.9992 9.28743 35.9928 9.32762L33.7433 23.3872C33.7332 23.4497 33.7023 23.507 33.6557 23.5498C33.6091 23.5927 33.5494 23.6186 33.4863 23.6233L12.0932 25.232C12.0861 25.2325 12.0789 25.2325 12.0718 25.2325ZM10.9698 25.3111C10.908 25.3111 10.8479 25.2906 10.7988 25.253C10.7498 25.2154 10.7145 25.1626 10.6986 25.1029L4.51232 2.04493C4.50273 2.00927 4.50027 1.97207 4.50507 1.93546C4.50988 1.89884 4.52185 1.86354 4.54031 1.83156C4.55878 1.79958 4.58336 1.77155 4.61267 1.74908C4.64197 1.72661 4.67542 1.71014 4.71109 1.70061C4.86107 1.6611 5.01534 1.74899 5.05541 1.89939L11.2416 24.9575C11.2511 24.9931 11.2536 25.0303 11.2488 25.0669C11.244 25.1035 11.232 25.1388 11.2135 25.1708C11.1951 25.2028 11.1705 25.2308 11.1412 25.2533C11.1119 25.2757 11.0785 25.2922 11.0428 25.3018C11.019 25.3081 10.9945 25.3112 10.9698 25.3111Z" fill="black"/>
<path d="M12.072 25.2337C12.0102 25.2337 11.9502 25.2133 11.9011 25.1757C11.8521 25.138 11.8168 25.0853 11.8008 25.0256L5.31136 0.920502C5.29307 0.84883 5.30375 0.772837 5.34109 0.708983C5.37843 0.645129 5.43942 0.598555 5.51085 0.579349C5.58228 0.560143 5.65841 0.569851 5.72273 0.606371C5.78706 0.642891 5.83441 0.703282 5.85452 0.774463L12.3439 24.8795C12.3632 24.9515 12.3532 25.0283 12.316 25.093C12.2787 25.1576 12.2174 25.2049 12.1454 25.2244C12.1215 25.2307 12.0968 25.2339 12.072 25.2337ZM4.78388 2.25342H0.84722C0.810287 2.25344 0.773711 2.24619 0.739584 2.23207C0.705457 2.21795 0.674449 2.19724 0.648334 2.17112C0.622218 2.14501 0.601508 2.114 0.587387 2.07987C0.573266 2.04575 0.566012 2.00917 0.56604 1.97224C0.566022 1.93531 0.573282 1.89873 0.587406 1.86461C0.60153 1.83049 0.622241 1.79949 0.648354 1.77337C0.674468 1.74726 0.705473 1.72655 0.739595 1.71242C0.773718 1.6983 0.81029 1.69104 0.84722 1.69106H4.78388C4.82081 1.69104 4.85738 1.6983 4.8915 1.71242C4.92562 1.72655 4.95663 1.74726 4.98274 1.77337C5.00885 1.79949 5.02957 1.83049 5.04369 1.86461C5.05781 1.89873 5.06507 1.93531 5.06506 1.97224C5.06507 2.00917 5.05781 2.04574 5.04369 2.07986C5.02957 2.11398 5.00885 2.14499 4.98274 2.1711C4.95663 2.19722 4.92562 2.21793 4.8915 2.23205C4.85738 2.24617 4.82081 2.25343 4.78388 2.25342Z" fill="black"/>
<path d="M5.58298 1.12871H0.84722C0.81029 1.12873 0.773718 1.12147 0.739595 1.10735C0.705472 1.09322 0.674468 1.07251 0.648354 1.0464C0.622241 1.02029 0.60153 0.989281 0.587406 0.955159C0.573282 0.921036 0.566022 0.884464 0.56604 0.847534C0.56604 0.692073 0.691759 0.566284 0.84722 0.566284H5.58305C5.61998 0.566266 5.65656 0.573528 5.69069 0.587657C5.72482 0.601785 5.75582 0.622502 5.78194 0.648623C5.80805 0.674744 5.82876 0.705757 5.84288 0.739888C5.857 0.774019 5.86426 0.810598 5.86423 0.847534C5.86423 0.884465 5.85695 0.921034 5.84282 0.955153C5.82868 0.989272 5.80797 1.02027 5.78185 1.04638C5.75573 1.07249 5.72472 1.0932 5.6906 1.10733C5.65648 1.12146 5.61991 1.12872 5.58298 1.12871Z" fill="black"/>
<path d="M0.84715 2.25343C0.381962 2.25343 0.00354004 1.87501 0.00354004 1.40989C0.00354004 0.944706 0.381962 0.566284 0.84715 0.566284C0.884086 0.566266 0.920663 0.573528 0.95479 0.587657C0.988918 0.601785 1.01993 0.622502 1.04604 0.648623C1.07215 0.674744 1.09286 0.705757 1.10698 0.739888C1.1211 0.774019 1.12836 0.810598 1.12833 0.847534C1.12835 0.884464 1.12109 0.921036 1.10696 0.955159C1.09284 0.989281 1.07213 1.02029 1.04601 1.0464C1.0199 1.07251 0.988897 1.09322 0.954774 1.10735C0.920652 1.12147 0.88408 1.12873 0.84715 1.12871C0.772587 1.12875 0.70109 1.15839 0.648367 1.21111C0.595643 1.26383 0.566007 1.33533 0.56597 1.40989C0.566026 1.48445 0.595668 1.55594 0.648387 1.60866C0.701106 1.66138 0.772593 1.69102 0.84715 1.69107C0.88408 1.69105 0.920652 1.69832 0.954774 1.71244C0.988897 1.72656 1.0199 1.74727 1.04601 1.77339C1.07213 1.7995 1.09284 1.83051 1.10696 1.86463C1.12109 1.89875 1.12835 1.93532 1.12833 1.97225C1.12835 2.00918 1.12109 2.04576 1.10696 2.07988C1.09284 2.114 1.07213 2.145 1.04601 2.17112C1.0199 2.19723 0.988897 2.21794 0.954774 2.23207C0.920652 2.24619 0.88408 2.25345 0.84715 2.25343ZM33.4653 12.9388H10.5998C10.5629 12.9388 10.5263 12.9315 10.4922 12.9174C10.4581 12.9033 10.4271 12.8826 10.401 12.8564C10.3749 12.8303 10.3542 12.7993 10.34 12.7652C10.3259 12.7311 10.3186 12.6945 10.3187 12.6576C10.3186 12.6206 10.3259 12.5841 10.34 12.5499C10.3542 12.5158 10.3749 12.4848 10.401 12.4587C10.4271 12.4326 10.4581 12.4119 10.4922 12.3978C10.5263 12.3836 10.5629 12.3764 10.5998 12.3764H33.4653C33.6208 12.3764 33.7466 12.5021 33.7466 12.6576C33.7466 12.6945 33.7393 12.7311 33.7252 12.7652C33.7111 12.7993 33.6904 12.8303 33.6642 12.8565C33.6381 12.8826 33.6071 12.9033 33.573 12.9174C33.5388 12.9315 33.5023 12.9388 33.4653 12.9388ZM32.3406 16.8754H12.287C12.1316 16.8754 12.0058 16.7497 12.0058 16.5942C12.0058 16.4388 12.1316 16.3131 12.287 16.3131H32.3406C32.4961 16.3131 32.6218 16.4388 32.6218 16.5942C32.6218 16.7497 32.4961 16.8754 32.3406 16.8754ZM31.2158 20.8121H13.4118C13.3748 20.8122 13.3383 20.8049 13.3041 20.7908C13.27 20.7766 13.239 20.7559 13.2129 20.7298C13.1868 20.7037 13.1661 20.6727 13.1519 20.6385C13.1378 20.6044 13.1306 20.5678 13.1306 20.5309C13.1306 20.494 13.1378 20.4574 13.152 20.4233C13.1661 20.3891 13.1868 20.3581 13.2129 20.332C13.239 20.3059 13.27 20.2852 13.3042 20.2711C13.3383 20.2569 13.3749 20.2497 13.4118 20.2497H31.2158C31.2528 20.2497 31.2893 20.2569 31.3234 20.2711C31.3576 20.2852 31.3886 20.3059 31.4147 20.332C31.4408 20.3581 31.4615 20.3891 31.4756 20.4233C31.4898 20.4574 31.497 20.494 31.497 20.5309C31.497 20.6863 31.3713 20.8121 31.2158 20.8121ZM10.4074 28.6855C10.3652 28.6856 10.3235 28.676 10.2855 28.6575C10.2522 28.6415 10.2224 28.6191 10.1979 28.5916C10.1733 28.5641 10.1544 28.532 10.1422 28.4971C10.13 28.4623 10.1249 28.4254 10.127 28.3885C10.1291 28.3517 10.1385 28.3156 10.1546 28.2824L11.8192 24.8306C11.8864 24.6912 12.0545 24.6329 12.1946 24.6994C12.2618 24.7319 12.3133 24.7897 12.3378 24.8601C12.3624 24.9306 12.3579 25.0079 12.3255 25.075L10.6609 28.5268C10.6379 28.5745 10.6019 28.6147 10.557 28.6427C10.5122 28.6708 10.4603 28.6856 10.4074 28.6855ZM9.29386 28.6855C9.25164 28.6856 9.20997 28.676 9.17201 28.6575C9.13874 28.6415 9.10895 28.6192 9.08436 28.5916C9.05976 28.5641 9.04083 28.532 9.02866 28.4972C9.0165 28.4623 9.01132 28.4254 9.01344 28.3886C9.01556 28.3517 9.02493 28.3156 9.04102 28.2824L10.7057 24.8306C10.773 24.6912 10.941 24.6329 11.0811 24.6994C11.1482 24.7319 11.1997 24.7897 11.2243 24.8601C11.2488 24.9306 11.2444 25.0079 11.2121 25.075L9.54741 28.5268C9.52439 28.5745 9.48838 28.6147 9.44352 28.6427C9.39866 28.6708 9.34678 28.6856 9.29386 28.6855ZM32.3406 30.935H12.0948C12.0579 30.935 12.0213 30.9278 11.9872 30.9137C11.9531 30.8995 11.9221 30.8788 11.896 30.8527C11.8699 30.8266 11.8491 30.7956 11.835 30.7615C11.8209 30.7273 11.8136 30.6908 11.8137 30.6538C11.8137 30.4984 11.9394 30.3726 12.0948 30.3726H32.3406C32.3775 30.3726 32.4141 30.3798 32.4483 30.394C32.4824 30.4081 32.5134 30.4288 32.5395 30.4549C32.5656 30.4811 32.5863 30.5121 32.6004 30.5462C32.6146 30.5803 32.6218 30.6169 32.6218 30.6538C32.6218 30.6908 32.6146 30.7273 32.6004 30.7615C32.5863 30.7956 32.5656 30.8266 32.5395 30.8527C32.5134 30.8788 32.4824 30.8995 32.4482 30.9137C32.4141 30.9278 32.3775 30.935 32.3406 30.935ZM32.3406 29.8102H12.0948C12.0579 29.8103 12.0213 29.803 11.9872 29.7889C11.9531 29.7748 11.9221 29.7541 11.8959 29.7279C11.8698 29.7018 11.8491 29.6708 11.835 29.6367C11.8209 29.6026 11.8136 29.566 11.8137 29.5291C11.8136 29.4921 11.8209 29.4556 11.835 29.4214C11.8491 29.3873 11.8699 29.3563 11.896 29.3302C11.9221 29.3041 11.9531 29.2834 11.9872 29.2692C12.0213 29.2551 12.0579 29.2479 12.0948 29.2479H32.3406C32.3775 29.2479 32.4141 29.2551 32.4482 29.2692C32.4824 29.2834 32.5134 29.3041 32.5395 29.3302C32.5656 29.3563 32.5863 29.3873 32.6004 29.4214C32.6146 29.4556 32.6218 29.4921 32.6218 29.5291C32.6218 29.566 32.6146 29.6026 32.6004 29.6367C32.5863 29.6708 32.5656 29.7018 32.5395 29.7279C32.5134 29.7541 32.4824 29.7748 32.4482 29.7889C32.4141 29.803 32.3775 29.8103 32.3406 29.8102Z" fill="black"/>
<path d="M12.0948 30.935C10.3893 30.935 9.00171 29.7997 9.00171 28.4042C9.00169 28.3673 9.00895 28.3307 9.02308 28.2966C9.0372 28.2625 9.05791 28.2315 9.08402 28.2054C9.11014 28.1792 9.14114 28.1585 9.17526 28.1444C9.20939 28.1303 9.24596 28.123 9.28289 28.123C9.31982 28.123 9.35639 28.1303 9.39051 28.1444C9.42464 28.1585 9.45564 28.1792 9.48175 28.2054C9.50787 28.2315 9.52858 28.2625 9.5427 28.2966C9.55683 28.3307 9.56409 28.3673 9.56407 28.4042C9.56407 29.4895 10.6993 30.3726 12.0948 30.3726C12.1318 30.3725 12.1683 30.3798 12.2025 30.3939C12.2366 30.4081 12.2676 30.4288 12.2937 30.4549C12.3198 30.481 12.3405 30.512 12.3547 30.5462C12.3688 30.5803 12.376 30.6169 12.376 30.6538C12.376 30.6907 12.3688 30.7273 12.3546 30.7614C12.3405 30.7956 12.3198 30.8266 12.2937 30.8527C12.2676 30.8788 12.2366 30.8995 12.2025 30.9136C12.1683 30.9277 12.1318 30.935 12.0948 30.935Z" fill="black"/>
<path d="M12.0949 29.8102C11.1657 29.8102 10.1266 29.2088 10.1266 28.4043C10.1266 28.3673 10.1338 28.3307 10.148 28.2966C10.1621 28.2625 10.1828 28.2315 10.2089 28.2054C10.235 28.1793 10.266 28.1586 10.3001 28.1444C10.3343 28.1303 10.3708 28.1231 10.4078 28.1231C10.4447 28.1231 10.4813 28.1303 10.5154 28.1444C10.5495 28.1586 10.5805 28.1793 10.6066 28.2054C10.6327 28.2315 10.6535 28.2625 10.6676 28.2966C10.6817 28.3307 10.689 28.3673 10.6889 28.4043C10.6889 28.8145 11.4117 29.2479 12.0949 29.2479C12.1318 29.2478 12.1684 29.2551 12.2025 29.2692C12.2367 29.2833 12.2677 29.3041 12.2938 29.3302C12.3199 29.3563 12.3406 29.3873 12.3547 29.4214C12.3689 29.4555 12.3761 29.4921 12.3761 29.529C12.3761 29.566 12.3689 29.6025 12.3547 29.6367C12.3406 29.6708 12.3199 29.7018 12.2938 29.7279C12.2677 29.754 12.2367 29.7747 12.2025 29.7889C12.1684 29.803 12.1318 29.8102 12.0949 29.8102ZM32.3407 30.935C32.3038 30.935 32.2672 30.9278 32.2331 30.9136C32.1989 30.8995 32.1679 30.8788 32.1418 30.8527C32.1157 30.8266 32.095 30.7956 32.0809 30.7615C32.0668 30.7273 32.0595 30.6908 32.0595 30.6538C32.0595 30.4984 32.1852 30.3726 32.3407 30.3726C32.4153 30.3726 32.4867 30.3429 32.5395 30.2902C32.5922 30.2375 32.6218 30.166 32.6219 30.0915C32.6219 29.9366 32.4956 29.8102 32.3407 29.8102C32.3038 29.8102 32.2672 29.803 32.2331 29.7889C32.1989 29.7748 32.1679 29.754 32.1418 29.7279C32.1157 29.7018 32.095 29.6708 32.0809 29.6367C32.0667 29.6025 32.0595 29.566 32.0595 29.529C32.0595 29.4921 32.0668 29.4555 32.0809 29.4214C32.095 29.3873 32.1157 29.3563 32.1418 29.3302C32.1679 29.3041 32.1989 29.2833 32.2331 29.2692C32.2672 29.2551 32.3038 29.2478 32.3407 29.2479C32.8058 29.2479 33.1842 29.6263 33.1842 30.0915C33.1842 30.5566 32.8058 30.935 32.3407 30.935ZM30.0912 21.9368C30.0543 21.9369 30.0177 21.9296 29.9836 21.9155C29.9494 21.9013 29.9184 21.8806 29.8923 21.8545C29.8662 21.8284 29.8455 21.7974 29.8314 21.7633C29.8173 21.7292 29.81 21.6926 29.81 21.6557V11.5328C29.81 11.4958 29.8173 11.4593 29.8314 11.4251C29.8455 11.391 29.8662 11.36 29.8923 11.3339C29.9184 11.3078 29.9494 11.2871 29.9836 11.273C30.0177 11.2588 30.0543 11.2516 30.0912 11.2516C30.1281 11.2516 30.1647 11.2588 30.1988 11.273C30.2329 11.2871 30.2639 11.3078 30.2901 11.3339C30.3162 11.36 30.3369 11.391 30.351 11.4251C30.3651 11.4593 30.3724 11.4958 30.3724 11.5328V21.6557C30.3724 21.6927 30.3651 21.7292 30.351 21.7633C30.3369 21.7974 30.3161 21.8284 30.29 21.8545C30.2639 21.8807 30.2329 21.9014 30.1988 21.9155C30.1647 21.9296 30.1281 21.9369 30.0912 21.9368ZM26.1545 21.9368C26.1175 21.9369 26.081 21.9296 26.0468 21.9155C26.0127 21.9013 25.9817 21.8806 25.9556 21.8545C25.9295 21.8284 25.9088 21.7974 25.8947 21.7633C25.8806 21.7292 25.8733 21.6926 25.8734 21.6557V11.5328C25.8733 11.4958 25.8806 11.4593 25.8947 11.4251C25.9088 11.391 25.9295 11.36 25.9556 11.3339C25.9817 11.3078 26.0127 11.2871 26.0468 11.273C26.081 11.2588 26.1175 11.2516 26.1545 11.2516C26.3099 11.2516 26.4357 11.3774 26.4357 11.5328V21.6557C26.4357 21.6927 26.4285 21.7292 26.4143 21.7633C26.4002 21.7975 26.3795 21.8285 26.3533 21.8546C26.3272 21.8807 26.2962 21.9014 26.2621 21.9155C26.228 21.9296 26.1914 21.9369 26.1545 21.9368ZM22.2177 21.9368C22.1808 21.9369 22.1442 21.9296 22.1101 21.9155C22.076 21.9013 22.045 21.8806 22.0189 21.8545C21.9928 21.8284 21.972 21.7974 21.9579 21.7633C21.9438 21.7292 21.9365 21.6926 21.9366 21.6557V11.5328C21.9365 11.4958 21.9438 11.4593 21.9579 11.4251C21.972 11.391 21.9928 11.36 22.0189 11.3339C22.045 11.3078 22.076 11.2871 22.1101 11.273C22.1442 11.2588 22.1808 11.2516 22.2177 11.2516C22.3732 11.2516 22.499 11.3774 22.499 11.5328V21.6557C22.499 21.6927 22.4917 21.7292 22.4776 21.7633C22.4635 21.7975 22.4427 21.8285 22.4166 21.8546C22.3905 21.8807 22.3595 21.9014 22.3254 21.9155C22.2912 21.9296 22.2547 21.9369 22.2177 21.9368ZM18.2811 21.9368C18.2441 21.9369 18.2076 21.9296 18.1735 21.9155C18.1393 21.9013 18.1083 21.8806 18.0822 21.8545C18.0561 21.8284 18.0354 21.7974 18.0213 21.7633C18.0071 21.7292 17.9999 21.6926 17.9999 21.6557V11.5328C17.9999 11.4958 18.0071 11.4593 18.0213 11.4251C18.0354 11.391 18.0561 11.36 18.0822 11.3339C18.1083 11.3078 18.1393 11.2871 18.1735 11.273C18.2076 11.2588 18.2441 11.2516 18.2811 11.2516C18.4365 11.2516 18.5623 11.3774 18.5623 11.5328V21.6557C18.5623 21.6927 18.5551 21.7292 18.5409 21.7633C18.5268 21.7975 18.5061 21.8285 18.48 21.8546C18.4538 21.8807 18.4228 21.9014 18.3887 21.9155C18.3546 21.9296 18.318 21.9369 18.2811 21.9368ZM14.3444 21.9368C14.3075 21.9369 14.2709 21.9296 14.2368 21.9155C14.2027 21.9013 14.1717 21.8806 14.1456 21.8545C14.1194 21.8284 14.0987 21.7974 14.0846 21.7633C14.0705 21.7292 14.0632 21.6926 14.0632 21.6557V11.5328C14.0632 11.4958 14.0705 11.4593 14.0846 11.4251C14.0987 11.391 14.1194 11.36 14.1456 11.3339C14.1717 11.3078 14.2027 11.2871 14.2368 11.273C14.2709 11.2588 14.3075 11.2516 14.3444 11.2516C14.3814 11.2516 14.4179 11.2588 14.452 11.273C14.4862 11.2871 14.5172 11.3078 14.5433 11.3339C14.5694 11.36 14.5901 11.391 14.6042 11.4251C14.6184 11.4593 14.6256 11.4958 14.6256 11.5328V21.6557C14.6256 21.6927 14.6184 21.7292 14.6042 21.7633C14.5901 21.7975 14.5694 21.8285 14.5433 21.8546C14.5172 21.8807 14.4862 21.9014 14.452 21.9155C14.4179 21.9296 14.3813 21.9369 14.3444 21.9368ZM14.0632 35.434C12.8229 35.434 11.8137 34.4251 11.8137 33.1845C11.8137 32.966 11.845 32.7495 11.907 32.5419C11.9284 32.4705 11.9772 32.4105 12.0427 32.3751C12.1083 32.3397 12.1852 32.3317 12.2566 32.3529C12.292 32.3634 12.325 32.3807 12.3537 32.404C12.3824 32.4272 12.4062 32.4559 12.4238 32.4883C12.4414 32.5208 12.4523 32.5564 12.4561 32.5931C12.4599 32.6298 12.4564 32.6669 12.4458 32.7023C12.3995 32.8588 12.376 33.0212 12.3761 33.1844C12.3761 34.1148 13.1329 34.8716 14.0632 34.8716C14.9935 34.8716 15.7504 34.1148 15.7504 33.1844C15.7504 33.0202 15.7268 32.8582 15.6806 32.7023C15.6701 32.667 15.6666 32.6299 15.6703 32.5931C15.6741 32.5564 15.6851 32.5208 15.7027 32.4884C15.7203 32.4559 15.7441 32.4272 15.7727 32.404C15.8014 32.3808 15.8344 32.3634 15.8698 32.3529C15.9051 32.3423 15.9423 32.3387 15.979 32.3425C16.0157 32.3462 16.0514 32.3572 16.0839 32.3748C16.1164 32.3923 16.1451 32.4161 16.1683 32.4448C16.1916 32.4735 16.2089 32.5065 16.2194 32.5419C16.2815 32.7505 16.313 32.9669 16.3128 33.1845C16.3128 34.4252 15.3036 35.434 14.0632 35.434Z" fill="black"/>
<path d="M14.0631 34.028C13.4308 34.028 12.8044 32.5473 12.3906 31.305C12.3789 31.2701 12.3742 31.2331 12.3768 31.1963C12.3794 31.1595 12.3892 31.1236 12.4057 31.0906C12.4222 31.0576 12.4451 31.0281 12.4729 31.004C12.5008 30.9798 12.5332 30.9614 12.5682 30.9497C12.6031 30.9379 12.6401 30.9331 12.677 30.9356C12.7138 30.9381 12.7498 30.9479 12.7829 30.9644C12.8159 30.9809 12.8454 31.0037 12.8696 31.0316C12.8938 31.0595 12.9122 31.092 12.9238 31.127C13.3113 32.2891 13.8534 33.3832 14.0835 33.4683C14.2729 33.3832 14.815 32.2891 15.2024 31.127C15.214 31.092 15.2325 31.0595 15.2566 31.0316C15.2808 31.0037 15.3103 30.9809 15.3433 30.9644C15.3764 30.9479 15.4124 30.9381 15.4492 30.9356C15.4861 30.9331 15.5231 30.9379 15.5581 30.9497C15.5931 30.9613 15.6255 30.9798 15.6533 31.0039C15.6812 31.0281 15.7041 31.0575 15.7206 31.0905C15.7371 31.1235 15.7469 31.1595 15.7495 31.1963C15.7521 31.2331 15.7474 31.2701 15.7357 31.305C15.3219 32.5473 14.6955 34.028 14.0631 34.028ZM28.6851 35.4339C27.445 35.4339 26.4356 34.425 26.4356 33.1844C26.4356 32.9653 26.4675 32.7489 26.529 32.5414C26.5507 32.4701 26.5997 32.4102 26.6653 32.3749C26.7309 32.3396 26.8078 32.3317 26.8793 32.3529C26.9506 32.3745 27.0105 32.4233 27.0459 32.4889C27.0814 32.5545 27.0894 32.6314 27.0683 32.7029C27.0216 32.8583 26.998 33.0203 26.998 33.1845C26.998 34.1148 27.7548 34.8717 28.6851 34.8717C29.6154 34.8717 30.3723 34.1148 30.3723 33.1845C30.3723 33.0203 30.3492 32.8583 30.3025 32.7024C30.2815 32.6308 30.2896 32.5539 30.3251 32.4883C30.3606 32.4228 30.4206 32.3739 30.492 32.3524C30.5275 32.3419 30.5646 32.3385 30.6014 32.3424C30.6382 32.3463 30.6738 32.3573 30.7063 32.375C30.7388 32.3926 30.7675 32.4165 30.7907 32.4453C30.814 32.474 30.8313 32.507 30.8418 32.5425C30.9035 32.7509 30.9347 32.9671 30.9346 33.1845C30.9346 34.4251 29.9252 35.4339 28.6851 35.4339Z" fill="black"/>
<path d="M28.6852 34.0281C28.0526 34.0281 27.4265 32.5474 27.0124 31.3051C26.9889 31.2344 26.9945 31.1572 27.0278 31.0906C27.0612 31.024 27.1196 30.9733 27.1903 30.9497C27.2253 30.938 27.2623 30.9332 27.2991 30.9358C27.336 30.9383 27.372 30.9481 27.405 30.9646C27.4381 30.9811 27.4676 31.0039 27.4918 31.0318C27.516 31.0597 27.5345 31.092 27.5462 31.1271C27.9334 32.2892 28.4755 33.3833 28.7055 33.4683C28.895 33.3833 29.437 32.2892 29.8243 31.1271C29.836 31.092 29.8544 31.0596 29.8786 31.0317C29.9028 31.0038 29.9323 30.981 29.9654 30.9645C29.9985 30.948 30.0344 30.9383 30.0713 30.9357C30.1081 30.9332 30.1451 30.938 30.1801 30.9497C30.2509 30.9733 30.3093 31.0239 30.3427 31.0906C30.3761 31.1572 30.3816 31.2344 30.3581 31.3051C29.944 32.5474 29.3179 34.0281 28.6852 34.0281Z" fill="black"/>
</g>
<defs>
<clipPath id="clip0_440_59">
<rect width="36" height="36" fill="white"/>
</clipPath>
</defs>
</svg>
